<svg id="icone_pix" xmlns="http://www.w3.org/2000/svg" width="30.118" height="30.116" viewBox="0 0 30.118 30.116" class="payment-icon">
	<defs></defs>
	<g transform="translate(-103.72 -103.725)">
		<path class="a" d="M126.012,124.457a4.394,4.394,0,0,1-3.128-1.3l-4.534-4.533a.857.857,0,0,0-1.188,0l-4.515,4.516a4.4,4.4,0,0,1-3.13,1.3h-.543l5.737,5.736a4.572,4.572,0,0,0,6.471,0l5.721-5.72Zm-5.736,4.815a3.3,3.3,0,0,1-4.659,0l-3.965-3.963a5.708,5.708,0,0,0,1.9-1.258l4.2-4.207,4.223,4.223a5.666,5.666,0,0,0,2.149,1.352Z" transform="translate(0.832 2.322)">
		</path>
		<path class="a" d="M121.182,105.065a4.577,4.577,0,0,0-6.471,0l-5.737,5.736h.543a4.4,4.4,0,0,1,3.13,1.3l4.515,4.516a.841.841,0,0,0,1.188,0l4.534-4.535a4.4,4.4,0,0,1,3.128-1.3h.891Zm.8,6.11-4.223,4.222-4.206-4.206a5.7,5.7,0,0,0-1.9-1.259l3.965-3.963a3.3,3.3,0,0,1,4.659,0l3.853,3.853A5.655,5.655,0,0,0,121.98,111.176Z" transform="translate(0.832)">
		</path>
		<path class="a" d="M132.5,114.4l-3.433-3.433h-2.218a3.117,3.117,0,0,0-2.188.906l-4.534,4.534a2.172,2.172,0,0,1-3.066,0l-4.518-4.518a3.115,3.115,0,0,0-2.189-.906h-1.871l-3.417,3.417a4.571,4.571,0,0,0,0,6.469l3.417,3.417h1.871a3.116,3.116,0,0,0,2.189-.907l4.518-4.515a2.22,2.22,0,0,1,3.066,0l4.534,4.534a3.109,3.109,0,0,0,2.188.908h2.218l3.433-3.433A4.571,4.571,0,0,0,132.5,114.4Zm-16.346,3.557-4.516,4.518a1.833,1.833,0,0,1-1.282.533h-1.344l-3.042-3.043a3.3,3.3,0,0,1,0-4.66l3.042-3.043h1.341a1.833,1.833,0,0,1,1.285.532l4.516,4.518a3.962,3.962,0,0,0,.374.326A3.6,3.6,0,0,0,116.15,117.959Zm15.441,2.007-3.059,3.059h-1.688a1.825,1.825,0,0,1-1.283-.533l-4.534-4.534a3.344,3.344,0,0,0-.374-.321,3.962,3.962,0,0,0,.374-.326l4.534-4.534a1.83,1.83,0,0,1,1.283-.533h1.688l3.059,3.06a3.3,3.3,0,0,1,0,4.66Z" transform="translate(0 1.147)">
		</path>
	</g>
</svg>